<svg width="193" height="242" fill="none" xmlns="http://www.w3.org/2000/svg"><path d="M104.302 191.698c.527-1.284 1.061-2.382 1.558-3.179 5.047-8.131 14.374-19.646 25.021-32.79 14.768-18.233 32.076-39.603 44.03-59.43 15.037-24.938 21.302-48.87 16.483-65.685-6.29-21.942-22.91-32.118-47.486-30.435-37.747 2.584-90.44 18.99-128.71 58.029C-4.703 78.51-8.37 99.28 24.474 102.569c3.071.306 11.743.005 16.614-1.945a28.919 28.919 0 0 0 4.97-2.553c4.592-2.095 9.325-4.964 13.155-7.286 1.28-.775 2.46-1.49 3.498-2.094 0 0 71.712-40.599 75.513-35.54 2.823 3.754-4.101 12.218-10.793 20.398-2.322 2.838-4.616 5.642-6.465 8.203-11.218 15.538-24.53 31.336-36.297 45.302-11.093 13.165-20.815 24.703-26.119 32.86-5.93 9.148-13.318 25.178-15.604 39.504-1.592 9.986-.65 19.399 2.275 27.091 2.105 5.531 5.103 10.663 9.346 14.924l49.735-49.735z" fill="#EAF1FA"/></svg>