<svg width="633" height="640" fill="none" xmlns="http://www.w3.org/2000/svg"><path d="M24.474 102.569c-32.845-3.288-29.177-24.06-9.276-44.361C53.468 19.17 106.161 2.763 143.908.179c24.576-1.683 41.196 8.493 47.486 30.436 4.819 16.814-1.446 40.746-16.483 65.685-20.572 34.12-57.002 72.81-69.051 92.219-.511.819-1.061 1.956-1.602 3.286 7.05-4.133 14.942-9.952 23.58-16.039 42.833-30.181 93.005-75.782 120.7-91.178 7.457-4.125 55.217-31.35 75.614-33.419 17.914-1.817 29.369 5.894 35.55 15.152 7.709 11.547 9.59 25.494 4.874 40.744-7.118 23.012-36.601 52.601-45.447 63.657-35.625 44.121-73.93 85.264-109.59 128.876-14.737 18.024-29.044 36.454-42.43 55.775-2.886 4.167-16.248 20.821-25.546 37.904a55.002 55.002 0 0 0-1.932 3.953c5.573-1.86 10.999-5.079 16.322-8.666 22.055-14.869 41.463-38.155 56.105-52.494 41.023-40.252 80.201-83.282 122.124-123.1 28.965-27.512 59.181-53.567 92.378-76.031 19.143-13.565 71.245-47.493 113.078-58.43 32.689-8.545 60.22-1.962 77.134 18.45 13.572 16.359 15.185 39.805 7.721 65.49-10.424 35.871-41.949 77.356-54.819 92.276-24.53 27.769-50.937 54.273-79.311 78.993-40.031 34.875-83.165 66.621-120.561 103.704-14.953 14.829-29.236 30.225-42.186 46.814-6.377 8.259-29.864 36.266-46.412 64.68-4.524 7.769-5.454 18.463-7.438 25.946 2.669-.528 5.424-1.288 8.144-1.9 14.621-3.29 28.948-10.195 38.827-15.558 36.139-19.637 65.902-38.327 93.758-59.951 27.266-21.165 52.561-45.251 80.416-75.605l69.588-66.475c42.713-42.652 94.074 10.023 53.783 50.64l-67.807 65.901c-31.99 32.738-61.042 58.462-92.004 81.086-31.41 22.951-64.673 42.834-105.099 63.418-17.589 8.979-44.822 20.155-70.402 22.886-24.23 2.584-47.082-1.885-64.222-15.775-15.487-12.552-22.459-34.422-14.419-62.53 11.512-40.25 57.495-102.345 67.464-116.142 20.575-29.237 44.391-55.87 69.877-81.177 33.838-33.603 69.799-65.668 106.254-96.744 23.292-19.857 47.278-38.633 68.889-59.751 6.749-6.513 19.822-20.134 31.184-36.074 6.475-9.085 12.813-18.659 16.502-28.09 1.204-3.079 2.43-5.987 2.855-8.867.775-5.273-4.196-3.539-8.997-3.932-10.38 1.119-21.99 4.592-33.488 9.251-28.805 11.673-57.024 29.562-69.609 37.764-30.842 20.927-59.006 45.103-85.755 70.868-41.415 39.891-79.57 83.419-119.848 123.961-19.35 19.517-46.809 52.204-77.141 68.361-18.413 9.809-37.937 14.052-57.734 10.528-24.408-4.336-33.883-19.083-35.11-38.344-.636-9.985 2.425-22.705 8.313-35.739 10.024-22.195 28.456-46.472 32.115-51.943 13.895-20.778 28.741-40.657 44.128-60.053 32.789-41.33 68.058-80.421 101.171-121.851-32.801 22.072-83.722 67.736-123.373 91.254-21.099 12.513-40.376 19.163-54.436 19.041-24.851-.216-36.771-12.098-42.369-26.811-2.926-7.692-3.867-17.105-2.275-27.091 2.286-14.326 9.674-30.356 15.604-39.504 10.931-16.811 40.623-47.978 62.416-78.162 7.181-9.945 21.06-23.544 17.258-28.602-3.801-5.057-75.513 35.54-75.513 35.54-4.148 2.412-10.526 6.586-16.653 9.38a28.919 28.919 0 0 1-4.97 2.554c-4.87 1.95-13.543 2.251-16.614 1.945z" fill="#EAF1FA"/></svg>